<svg xmlns="http://www.w3.org/2000/svg" viewBox="0 0 450 120" width="100%" height="100%">
  <defs>
    <linearGradient id="primaryGrad" x1="0%" y1="0%" x2="100%" y2="100%">
      <stop offset="0%" stop-color="#1f4e79" />
      <stop offset="100%" stop-color="#11304f" />
    </linearGradient>
    <linearGradient id="accentGrad" x1="0%" y1="0%" x2="100%" y2="100%">
      <stop offset="0%" stop-color="#F28500" />
      <stop offset="100%" stop-color="#d97700" />
    </linearGradient>
  </defs>

  <g transform="translate(15, 10)">
    <path d="M45 5 L85 20 L85 60 C85 80 65 95 45 105 C25 95 5 80 5 60 L5 20 Z" 
          fill="none" stroke="url(#primaryGrad)" stroke-width="5" stroke-linejoin="round"/>
    
    <g transform="translate(25, 28)">
      <path d="M-8 15 L-3 15 M-8 25 L-3 25" stroke="#1f4e79" stroke-width="2.5" stroke-linecap="round"/>
      <path d="M48 15 L43 15 M48 25 L43 25" stroke="#1f4e79" stroke-width="2.5" stroke-linecap="round"/>
      <path d="M15 -8 L15 -3 M25 -8 L25 -3" stroke="#1f4e79" stroke-width="2.5" stroke-linecap="round"/>
      <path d="M15 48 L15 43 M25 48 L25 43" stroke="#1f4e79" stroke-width="2.5" stroke-linecap="round"/>
      
      <rect x="0" y="0" width="40" height="40" rx="6" fill="#ffffff" stroke="#1f4e79" stroke-width="4"/>
      <rect x="10" y="10" width="20" height="20" rx="4" fill="#1f4e79"/>
    </g>

    <g transform="translate(25, 55)">
      <path d="M 0 15 L 18 2 L 28 10 L 48 -12" 
            fill="none" stroke="#79AC78" stroke-width="4" stroke-linecap="round" stroke-linejoin="round"/>
      <path d="M 38 -12 L 48 -12 L 48 -2" 
            fill="none" stroke="#79AC78" stroke-width="4" stroke-linecap="round" stroke-linejoin="round"/>
    </g>

    <g transform="translate(60, 60)">
      <path d="M 5 0 L 25 0 L 35 10 L 20 25 L 0 5 Z" 
            fill="url(#accentGrad)" stroke="#ffffff" stroke-width="2" stroke-linejoin="round"/>
      <circle cx="10" cy="5" r="2" fill="#ffffff"/>
      <path d="M 14 16 L 24 6" fill="none" stroke="#ffffff" stroke-width="2.5" stroke-linecap="round"/>
      <circle cx="16" cy="8" r="1.5" fill="#ffffff"/>
      <circle cx="22" cy="14" r="1.5" fill="#ffffff"/>
    </g>
  </g>

  <g transform="translate(125, 70)">
    <text font-family="'Pretendard', 'Malgun Gothic', 'Apple SD Gothic Neo', sans-serif" font-weight="900" font-size="52" letter-spacing="-1">
      <tspan fill="#1f4e79">PC</tspan><tspan fill="#212529">Price</tspan><tspan fill="#F28500">Track</tspan>
    </text>
    
    <text x="3" y="30" font-family="'Pretendard', 'Malgun Gothic', 'Apple SD Gothic Neo', sans-serif" font-weight="700" font-size="16" fill="#6c757d" letter-spacing="0.5">
      조립 PC 견적 &amp; 특가 정보
    </text>
  </g>
</svg>
